# xmcd
#
# Track frame offsets:
#	150
#	18019
#	34589
#	51474
#	67431
#	82500
#	100362
#	114638
#	127383
#	143241
#	157912
#	174461
#	191162
#	203289
#	216852
#
# Disc length: 3061 seconds
#
# Revision: 1
# Processed by: cddbd v1.5.1PL2 Copyright (c) Steve Scherf et al.
# Submitted via: audiograbber 1.83.01
#
DISCID=d30bf30f
DTITLE=Ingrid Peters - Gänsehaut
DYEAR=1900
DGENRE=
TTITLE0=Total verrückt
TTITLE1=Jeder Tag mit Dir ist ein Geschenk
TTITLE2=Gänsehaut (Album Version)
TTITLE3=Sommer am Meer
TTITLE4=Dann kamst Du
TTITLE5=Du bist alles für mich
TTITLE6=Sag es nicht
TTITLE7=Du ...
TTITLE8=Hör nicht auf
TTITLE9=Zeit zu geh´n
TTITLE10=Mach was Du willst
TTITLE11=Freitag Nacht
TTITLE12=Alle meine Träume
TTITLE13=Schmeiß den Kuckuck aus dem Nest
TTITLE14=Über die Brücke geh´n
EXTD=
EXTT0=
EXTT1=
EXTT2=
EXTT3=
EXTT4=
EXTT5=
EXTT6=
EXTT7=
EXTT8=
EXTT9=
EXTT10=
EXTT11=
EXTT12=
EXTT13=
EXTT14=
PLAYORDER=
